<?xml version="1.0"?>
<svg width="256" height="256" xmlns="http://www.w3.org/2000/svg" xmlns:svg="http://www.w3.org/2000/svg" preserveAspectRatio="xMidYMid meet" version="1.0">
 <g class="layer">
  <title>Layer 1</title>
  <g fill="#000000" fill-opacity="0.89" id="svg_1" transform="matrix(0.1 0 0 -0.1 0 0)">
   <path d="m1175,4c-175,-29 -327,-114 -432,-244c-126,-157 -224,-421 -268,-725c-15,-105 -35,-393 -35,-503c0,-132 9,-166 52,-194c39,-25 155,-67 255,-93c53,-14 98,-27 100,-29c3,-2 -85,-34 -194,-70c-218,-73 -248,-87 -288,-140c-47,-62 -54,-97 -55,-284c0,-193 6,-218 63,-252c31,-19 57,-20 917,-20c860,0 886,1 917,20c57,34 63,59 63,252c-1,187 -8,222 -55,284c-40,53 -70,67 -288,140c-109,36 -197,68 -194,70c2,2 47,15 100,29c100,26 216,68 255,93c43,28 52,62 52,194c0,110 -20,398 -35,503c-55,383 -194,694 -370,827c-69,52 -169,103 -240,123c-60,16 -263,28 -320,19zm298,-99c169,-44 299,-156 392,-336c117,-227 175,-516 191,-966l7,-181l-34,-21c-62,-38 -305,-110 -371,-111l-28,0l0,73l1,72l70,48c45,31 82,66 104,100c53,79 77,103 117,116c21,7 49,26 63,42c24,29 25,36 25,156c0,100 -3,131 -17,154c-17,29 -67,59 -97,59c-13,0 -16,12 -16,58c0,57 -1,59 -35,75c-43,21 -101,81 -140,149c-19,32 -39,54 -52,56c-11,2 -55,-13 -99,-32c-190,-83 -453,-146 -689,-166c-71,-6 -138,-13 -147,-16c-15,-4 -18,-17 -18,-65c0,-47 -3,-59 -16,-59c-30,0 -80,-30 -97,-59c-14,-23 -17,-54 -17,-154c0,-112 2,-127 22,-152c24,-31 74,-55 113,-55c16,0 28,-7 31,-18c25,-86 91,-164 186,-220c27,-15 28,-20 28,-89c0,-73 0,-73 -27,-73c-67,1 -310,73 -372,111l-34,21l7,181c16,450 74,739 191,966c130,252 330,369 605,356c52,-2 121,-11 153,-20zm204,-619c18,-25 53,-61 78,-78c43,-31 45,-34 45,-83c0,-65 -28,-408 -36,-439c-7,-31 -65,-62 -160,-86c-108,-28 -139,-26 -181,10c-28,25 -42,30 -84,30c-56,0 -85,-12 -111,-44c-24,-29 -23,-87 2,-119c44,-55 151,-59 200,-7c21,22 37,28 93,33c37,3 67,5 67,2c0,-2 -43,-34 -97,-71c-182,-127 -227,-124 -444,27c-242,168 -233,152 -256,463c-9,124 -14,228 -10,232c4,4 53,11 109,16c213,17 475,79 651,152c66,28 84,32 92,21c6,-7 25,-33 42,-59zm-963,-384c4,-68 5,-126 2,-129c-4,-4 -19,-2 -34,3c-27,9 -27,10 -30,118c-3,112 5,140 37,134c13,-3 18,-26 25,-126zm1204,116c8,-8 12,-49 12,-120c0,-96 -2,-108 -19,-118c-11,-5 -27,-10 -36,-10c-16,0 -17,12 -10,123c4,67 9,125 12,130c6,11 27,9 41,-5zm-543,-468c10,-16 -14,-40 -39,-40c-31,0 -50,16 -43,34c7,18 72,23 82,6zm-288,-214c76,-54 119,-68 203,-68c84,0 127,14 203,68c26,19 49,34 52,34c3,0 5,-20 5,-45c0,-25 6,-60 14,-78c15,-36 79,-97 101,-97c27,0 16,-16 -62,-95c-90,-91 -174,-155 -255,-196l-58,-29l-57,29c-82,41 -166,105 -255,196c-79,79 -90,95 -63,95c22,0 86,61 101,97c8,18 14,53 14,78c0,25 2,45 5,45c3,0 26,-15 52,-34zm-169,-335c59,-59 135,-127 170,-150c69,-46 179,-101 202,-101c23,0 133,55 202,101c35,23 112,91 172,152l109,111l156,-52c86,-29 163,-56 171,-62c12,-7 -8,-32 -97,-123c-132,-133 -152,-170 -153,-274l0,-73l-560,0l-560,0l0,73c-1,104 -21,141 -152,274c-61,62 -108,116 -104,120c8,8 305,111 324,112c7,1 61,-48 120,-108zm-388,-196l115,-115l3,-80l4,-80l-115,0c-92,0 -119,3 -131,16c-13,13 -16,43 -16,172c0,151 5,202 19,202c3,0 58,-52 121,-115zm1654,93c3,-13 6,-94 6,-180c0,-129 -3,-159 -16,-172c-12,-13 -39,-16 -131,-16l-115,0l4,80l3,80l115,115c63,63 118,115 121,115c4,0 9,-10 13,-22z" fill="#6b412c" id="svg_2"/>
  </g>
 </g>
</svg>