<svg xmlns="http://www.w3.org/2000/svg" xmlns:xlink="http://www.w3.org/1999/xlink" viewBox="0,0,256,256" width="50" height="50"><g  fill-rule="nonzero" stroke="none" stroke-width="1" stroke-linecap="butt" stroke-linejoin="miter" stroke-miterlimit="10" stroke-dasharray="" stroke-dashoffset="0" font-family="none" font-weight="none" font-size="none" text-anchor="none" style="mix-blend-mode: normal"><g transform="translate(9.24063,264.61703) rotate(-94) scale(10.66667,10.66667)"><path d="M12,2c-5.51693,0 -10,4.48308 -10,10c0,5.51693 4.48307,10 10,10c5.51693,0 10,-4.48307 10,-10c0,-5.51692 -4.48307,-10 -10,-10zM12,3c4.97649,0 9,4.02351 9,9c0,4.97649 -4.02351,9 -9,9c-4.97649,0 -9,-4.02351 -9,-9c0,-4.97649 4.02351,-9 9,-9zM12.48047,4.99414c-0.25536,0.01045 -0.46173,0.21178 -0.47852,0.4668l-0.5,6.5c-0.01365,0.17444 0.06487,0.34332 0.20703,0.44531l3.5,2.5c0.1448,0.11178 0.33907,0.13558 0.50657,0.06205c0.1675,-0.07353 0.28148,-0.23264 0.2972,-0.41489c0.01573,-0.18225 -0.06931,-0.35853 -0.22174,-0.45967l-3.27148,-2.33594l0.47852,-6.21875c0.01302,-0.14331 -0.03633,-0.28529 -0.13543,-0.38963c-0.0991,-0.10434 -0.23835,-0.16093 -0.38215,-0.15529z" fill="white"></path></g></g></svg>